<?xml version="1.0" standalone="no"?>
<!DOCTYPE svg PUBLIC "-//W3C//DTD SVG 20010904//EN"
 "http://www.w3.org/TR/2001/REC-SVG-20010904/DTD/svg10.dtd">
<svg version="1.0" xmlns="http://www.w3.org/2000/svg"
 width="100%" height="100%" viewBox="250 150 500 500"
 preserveAspectRatio="xMidYMid meet">

<g transform="translate(0.000000,1024.000000) scale(0.100000,-0.100000)"
fill="#000000" stroke="none">
<path d="M4910 7897 c-113 -84 -389 -290 -615 -457 -225 -167 -580 -430 -787
-584 l-377 -281 -1 -1053 0 -1053 23 7 c12 4 76 21 142 39 l120 31 5 144 6
145 2 -144 2 -143 23 6 c41 11 290 45 447 62 205 21 709 29 925 15 94 -6 303
-28 465 -48 275 -35 313 -37 560 -37 246 0 275 2 402 27 75 15 190 44 255 66
65 21 119 37 121 36 7 -6 -114 -83 -186 -119 -270 -136 -666 -190 -1137 -156
-77 6 -261 24 -410 40 -148 16 -326 35 -395 42 -167 17 -692 17 -830 0 -168
-21 -344 -60 -492 -108 -76 -25 -138 -47 -138 -50 0 -3 55 -2 123 2 164 9 843
10 987 1 281 -18 557 -39 700 -52 504 -47 875 -49 1156 -5 159 25 373 96 494
163 333 185 550 472 554 732 1 71 -2 85 -27 127 -48 82 -147 122 -237 98 -47
-13 -67 -31 -222 -202 -142 -157 -323 -248 -593 -299 -135 -26 -218 -28 -1540
-33 -539 -2 -987 -5 -995 -7 -13 -4 -15 88 -18 771 l-2 775 851 638 c767 576
853 637 869 625 56 -39 884 -666 1308 -990 l194 -148 229 0 c126 0 229 3 228
8 -1 14 -401 337 -724 584 -325 249 -1246 938 -1253 938 -4 0 -99 -69 -212
-153z"/>
<path d="M4840 6362 c-39 -38 -70 -116 -70 -174 l0 -28 80 0 c44 0 80 -4 80
-8 0 -10 -107 -80 -176 -116 -165 -86 -377 -96 -515 -26 -87 45 -159 130 -180
214 -16 66 -25 70 -141 67 -69 -1 -84 -21 -87 -107 -2 -50 -11 -89 -33 -144
-26 -64 -31 -92 -36 -186 l-4 -111 108 -6 c175 -9 311 -63 431 -170 110 -98
151 -114 418 -167 88 -17 297 -61 465 -96 168 -36 350 -74 405 -85 259 -51
565 -43 752 22 132 45 193 106 193 191 0 41 -5 54 -37 90 -44 48 -138 95 -258
128 -328 91 -365 111 -927 500 -413 285 -401 280 -468 212z"/>
<path d="M6845 5936 c-112 -50 -122 -211 -16 -265 51 -27 86 -26 135 2 68 38
93 117 62 191 -27 66 -117 102 -181 72z"/>
<path d="M3760 5405 c0 -219 6 -245 61 -264 32 -11 1498 -17 1487 -6 -2 3
-101 25 -219 51 -671 143 -684 146 -759 185 -19 9 -71 48 -115 84 -132 111
-221 145 -375 145 l-80 0 0 -195z"/>
<path d="M7093 5590 c-29 -12 -63 -67 -63 -101 0 -43 40 -93 84 -104 79 -19
144 50 125 133 -4 19 -16 44 -27 54 -22 22 -87 32 -119 18z"/>
</g>
</svg>
